<?xml version="1.0" encoding="utf-8"?>
<svg viewBox="13.6 13.2 130.6 19.6" xmlns="http://www.w3.org/2000/svg">
  <defs>
    <style type="text/css">
	.st0{fill:#4F46E5;}
	.st1{stroke:#000000;stroke-width:0.25;stroke-miterlimit:10;}
	.st2{fill:#4F46E5;stroke:#4F46E5;stroke-width:0.25;stroke-miterlimit:10;}
	.st3{fill:#FFFFFF;}
	.st4{fill:#FFFFFF;stroke:#FFFFFF;stroke-width:0.25;stroke-miterlimit:10;}
</style>
  </defs>
  <g id="SvgjsG3556" transform="matrix(1, 0, 0, 1, 80, -4.999999)">
    <g>
      <path class="st0" d="M-66.3,19.4c0-0.7,0.5-1.2,1.2-1.2h8.3v7h-2.1l-2.9-2.9h-4.6V19.4z M-54.2,25.8v4.5h-4.5v-4.5H-54.2z M-66.3,22.9h4.3l2.7,2.7v2.1h-7V22.9z M-66.3,28.3h7v2.1l-2.7,2.7h-4.3V28.3z M-56.7,37.8h-8.3c-0.7,0-1.2-0.5-1.2-1.2v-2.9h4.6 l2.9-2.9h2.1V37.8z M-46.6,36.6c0,0.7-0.5,1.2-1.2,1.2h-8.3v-7h2.1l2.9,2.9h4.6V36.6z M-46.6,33.1h-4.3l-2.7-2.7v-2.1h7V33.1z M-46.6,27.7h-7v-2.1l2.7-2.7h4.3V27.7z M-46.6,22.3h-4.6l-2.9,2.9h-2.1v-7h8.3c0.7,0,1.2,0.5,1.2,1.2V22.3z"/>
    </g>
  </g>
  <g transform="matrix(1, 0, 0, 1, 0, 3.899999)">
    <path class="st1" d="M40,15.4h5.2v1.3h-3.6v1.6h3.6v1.3h-3.6v3.1H40V15.4z"/>
    <path class="st1" d="M52.4,21.5h-3.3l-0.5,1.3H47l2.8-7.3h2l2.8,7.3h-1.7L52.4,21.5z M49.5,20.1H52l-1.2-3.4L49.5,20.1z"/>
    <path class="st1" d="M58.8,17.8v4.9h-1.6v-7.3h1.6l3.4,4.8v-4.8h1.6v7.3h-1.5L58.8,17.8z"/>
    <path class="st1" d="M68.9,16.8h-2.1v-1.4h5.9v1.4h-2.1v6h-1.6V16.8z"/>
    <path class="st1" d="M79.5,21.5h-3.3l-0.5,1.3H74l2.8-7.3h2l2.8,7.3H80L79.5,21.5z M76.6,20.1h2.4l-1.2-3.4L76.6,20.1z"/>
    <path class="st2" d="M84,21.5l3.5-4.7H84v-1.4h5.5v1.3l-3.5,4.7h3.5v1.4H84V21.5z"/>
    <path class="st1" d="M93.1,20.5c0.5,0.5,1.3,1,2.3,1c0.9,0,1.3-0.4,1.3-0.8c0-0.6-0.6-0.7-1.5-0.9c-1.2-0.3-2.7-0.6-2.7-2.2 c0-1.2,1.1-2.2,2.8-2.2c1.2,0,2.1,0.4,2.9,1l-0.9,1.1c-0.6-0.6-1.4-0.8-2.1-0.8c-0.7,0-1.1,0.3-1.1,0.7c0,0.5,0.6,0.6,1.5,0.8 c1.2,0.3,2.8,0.6,2.8,2.3c0,1.3-1,2.4-2.9,2.4c-1.4,0-2.4-0.5-3.1-1.2L93.1,20.5z"/>
    <path class="st1" d="M100.9,19.1c0-2.3,1.7-3.8,3.9-3.8c1.7,0,2.6,0.9,3.1,1.8l-1.3,0.7c-0.3-0.6-1-1.1-1.8-1.1 c-1.3,0-2.2,1-2.2,2.4s1,2.4,2.2,2.4c0.8,0,1.5-0.5,1.8-1.1l1.3,0.6c-0.5,0.9-1.5,1.8-3.1,1.8C102.6,22.9,100.9,21.4,100.9,19.1z"/>
    <path class="st1" d="M114.3,15.3c2.2,0,3.8,1.6,3.8,3.8s-1.6,3.8-3.8,3.8c-2.2,0-3.8-1.6-3.8-3.8S112.1,15.3,114.3,15.3z M114.3,16.7c-1.4,0-2.2,1-2.2,2.4c0,1.4,0.9,2.4,2.2,2.4c1.4,0,2.2-1,2.2-2.4C116.5,17.7,115.6,16.7,114.3,16.7z"/>
    <path class="st1" d="M123.9,20.1h-1.1v2.6h-1.6v-7.3h3.4c1.5,0,2.5,1,2.5,2.4c0,1.3-0.8,2-1.6,2.2l1.7,2.8h-1.8L123.9,20.1z M124.4,16.8h-1.6v2h1.6c0.6,0,1.1-0.4,1.1-1C125.5,17.2,125,16.8,124.4,16.8z"/>
    <path class="st1" d="M130.2,15.4h5.2v1.3h-3.6v1.6h3.6v1.3h-3.6v1.7h3.6v1.4h-5.2V15.4z"/>
    <path class="st1" d="M138.9,20.5c0.5,0.5,1.3,1,2.3,1c0.9,0,1.3-0.4,1.3-0.8c0-0.6-0.6-0.7-1.5-0.9c-1.2-0.3-2.7-0.6-2.7-2.2 c0-1.2,1.1-2.2,2.8-2.2c1.2,0,2.1,0.4,2.9,1l-0.9,1.1c-0.6-0.6-1.4-0.8-2.1-0.8c-0.7,0-1.1,0.3-1.1,0.7c0,0.5,0.6,0.6,1.5,0.8 c1.2,0.3,2.8,0.6,2.8,2.3c0,1.3-1,2.4-2.9,2.4c-1.4,0-2.4-0.5-3.1-1.2L138.9,20.5z"/>
  </g>
</svg>