<?xml version="1.0" encoding="utf-8"?>
<!-- Generator: Adobe Illustrator 26.1.0, SVG Export Plug-In . SVG Version: 6.00 Build 0)  -->
<svg version="1.1" id="Layer_1" xmlns="http://www.w3.org/2000/svg" xmlns:xlink="http://www.w3.org/1999/xlink" x="0px" y="0px"
	 viewBox="0 0 525 325" style="enable-background:new 0 0 525 325;" xml:space="preserve">
<g>
	<polygon points="149.82,124.65 149.82,172.5 149.82,174.64 149.82,249.64 174.82,249.64 174.82,174.64 174.82,172.5 174.82,124.65 
			"/>
	<path d="M437.32,174.64v-25h62.5v-25l-84.38,0c-1.73,0-3.12,1.4-3.12,3.12v68.75c0,1.73,1.4,3.13,3.12,3.13h18.05l41.33,0v25h-62.5
		v25l84.37,0c1.73,0,3.12-1.4,3.12-3.12l0-68.75c0-1.73-1.4-3.12-3.12-3.12L437.32,174.64L437.32,174.64L437.32,174.64z"/>
	<path d="M384.2,199.64c1.73,0,3.12-1.4,3.12-3.13l0-68.75c0-1.73-1.4-3.12-3.12-3.12h-81.25c-1.73,0-3.12,1.4-3.12,3.12v118.75
		c0,1.73,1.4,3.12,3.12,3.12l84.38,0v-25h-62.5v-25L384.2,199.64z M324.82,174.64v-5.15v-15h0v-4.85h25h0h12.5v22.85h0v2.15h-12.5h0
		L324.82,174.64L324.82,174.64z"/>
	<path d="M124.82,99.64v-25H42.5v0H27.95c-1.73,0-3.12,1.4-3.12,3.12l0,171.87h25v-100h75v-25h-75v-25H124.82z"/>
	<polygon points="274.82,74.64 274.82,24.64 249.82,24.64 249.82,74.64 224.82,74.64 224.82,24.64 199.82,24.64 199.82,74.64 
		149.82,74.64 149.82,99.64 199.82,99.64 199.82,249.64 224.82,249.64 224.82,99.64 249.82,99.64 249.82,249.64 274.82,249.64 
		274.82,99.64 499.82,99.64 499.82,74.64 	"/>
	<path d="M24.82,274.64v21.88c0,1.73,1.4,3.12,3.12,3.12H496.7c1.73,0,3.12-1.4,3.12-3.12v-21.88H24.82z"/>
</g>
</svg>
