<svg width="1047" height="203" viewBox="0 0 1047 203" fill="none" xmlns="http://www.w3.org/2000/svg">
<path d="M50.6404 84.3906C43.1342 84.3834 35.7209 86.0505 28.9404 89.2707V96.4506C28.9413 115.135 36.1738 133.095 49.1223 146.565C62.0708 160.036 79.7303 167.972 98.4004 168.711C100.306 163.297 101.276 157.599 101.27 151.861V135.021C101.27 121.593 95.9362 108.715 86.4412 99.2198C76.9463 89.7249 64.0683 84.3906 50.6404 84.3906V84.3906Z" fill="#B6BCF7"/>
<path d="M101.27 0C91.7711 -9.07877e-08 82.3648 1.8712 73.5886 5.50675C64.8125 9.1423 56.8384 14.471 50.1219 21.1885C43.4053 27.906 38.0777 35.8808 34.4433 44.6574C30.809 53.4341 28.9391 62.8406 28.9404 72.34V89.27C36.6583 85.6118 45.176 83.965 53.7013 84.4829C62.2265 85.0009 70.4823 87.6667 77.7005 92.2323C84.9188 96.798 90.865 103.115 94.9859 110.596C99.1069 118.077 101.269 126.479 101.27 135.02V151.86C101.272 157.585 100.301 163.269 98.4004 168.67C99.4004 168.67 100.31 168.74 101.27 168.74C120.454 168.74 138.851 161.12 152.415 147.555C165.98 133.991 173.6 115.593 173.6 96.41V72.34C173.602 62.8406 171.732 53.4341 168.098 44.6574C164.463 35.8808 159.136 27.906 152.419 21.1885C145.702 14.471 137.728 9.1423 128.952 5.50675C120.176 1.8712 110.77 -9.07877e-08 101.27 0V0Z" fill="#434EE1"/>
<path d="M28.94 96.4495V89.2695C20.2818 93.3758 12.9663 99.8545 7.84357 107.953C2.72079 116.051 0.000945294 125.437 0 135.02V151.86C0.00571778 163.807 4.23575 175.368 11.9422 184.499C19.6487 193.629 30.3353 199.74 42.1125 201.752C53.8898 203.764 65.9991 201.547 76.2996 195.493C86.6 189.439 94.4282 179.938 98.4 168.67C79.7368 167.931 62.0832 160 49.1357 146.538C36.1883 133.076 28.9512 115.127 28.94 96.4495V96.4495Z" fill="#0A1567"/>
<path d="M289.01 64.9599C286.277 59.8827 282.101 55.7282 277.01 53.0199C271.724 50.1199 265.187 48.6699 257.4 48.6699H219.4V149.94H237.76V115.72H257.14C264.96 115.72 271.537 114.28 276.87 111.4C282 108.721 286.218 104.579 288.99 99.4999C291.68 94.1402 293.08 88.2265 293.08 82.2299C293.08 76.2334 291.68 70.3197 288.99 64.9599H289.01ZM272.3 91.7399C270.879 94.5327 268.625 96.8147 265.85 98.2699C262.379 99.9774 258.536 100.792 254.67 100.64H237.76V63.9999H254.57C258.451 63.845 262.312 64.6343 265.82 66.2999C268.602 67.6957 270.87 69.936 272.3 72.6999C273.75 75.6532 274.47 78.9109 274.4 82.1999C274.465 85.5013 273.745 88.7708 272.3 91.7399V91.7399Z" fill="#0C106C"/>
<path d="M321.29 151.481C316.82 151.553 312.388 150.666 308.29 148.881C304.574 147.256 301.411 144.584 299.19 141.191C296.866 137.424 295.707 133.054 295.86 128.631C295.722 124.943 296.538 121.281 298.23 118.001C299.773 115.236 302.005 112.918 304.71 111.271C307.586 109.528 310.712 108.237 313.98 107.441C317.5 106.553 321.079 105.918 324.69 105.541C329.136 105.081 332.746 104.661 335.52 104.281C337.635 104.098 339.692 103.493 341.57 102.501C342.198 102.098 342.707 101.534 343.043 100.867C343.379 100.2 343.53 99.4557 343.48 98.7108V98.4208C343.48 94.6908 342.37 91.8108 340.16 89.7608C337.95 87.7108 334.77 86.7008 330.62 86.7008C326.24 86.7008 322.77 87.6542 320.21 89.5608C317.837 91.2421 316.033 93.6074 315.04 96.3408L298.33 93.9708C299.495 89.6162 301.741 85.6263 304.86 82.3708C307.974 79.207 311.781 76.8105 315.98 75.3708C320.655 73.7549 325.574 72.9599 330.52 73.0208C334.2 73.0251 337.868 73.4546 341.45 74.3008C344.984 75.1208 348.348 76.5523 351.39 78.5308C354.436 80.548 356.926 83.2991 358.63 86.5308C360.587 90.4379 361.532 94.7736 361.38 99.1408V149.971H344.19V139.511H343.6C341.064 144.344 336.796 148.041 331.65 149.861C328.32 151.013 324.812 151.562 321.29 151.481ZM325.94 138.321C329.188 138.406 332.405 137.666 335.29 136.171C337.804 134.853 339.915 132.88 341.4 130.461C342.822 128.123 343.566 125.437 343.55 122.701V113.701C342.689 114.303 341.722 114.738 340.7 114.981C339.229 115.397 337.737 115.731 336.23 115.981C334.58 116.281 332.95 116.541 331.33 116.771L327.13 117.361C324.679 117.674 322.273 118.272 319.96 119.141C318.027 119.843 316.306 121.027 314.96 122.581C313.51 124.578 312.886 127.057 313.218 129.503C313.549 131.948 314.811 134.172 316.74 135.711C319.461 137.515 322.677 138.427 325.94 138.321V138.321Z" fill="#0C106C"/>
<path d="M375.97 149.939V73.989H393.33V86.649H394.12C395.302 82.5562 397.818 78.9763 401.27 76.479C404.651 74.0734 408.71 72.8057 412.86 72.859C413.86 72.859 414.96 72.859 416.2 72.979C417.236 73.0424 418.268 73.1659 419.29 73.349V89.859C418.12 89.513 416.922 89.2721 415.71 89.139C414.141 88.932 412.562 88.8251 410.98 88.819C407.926 88.7684 404.909 89.4908 402.21 90.919C399.683 92.264 397.57 94.2728 396.1 96.729C394.585 99.3239 393.814 102.285 393.87 105.289V149.939H375.97Z" fill="#0C106C"/>
<path d="M459.06 135.209C458.56 135.339 457.85 135.489 456.91 135.649C455.902 135.808 454.881 135.879 453.86 135.859C452.476 135.877 451.1 135.643 449.8 135.169C448.544 134.676 447.503 133.755 446.86 132.569C446.023 130.858 445.641 128.961 445.75 127.059V87.8591H460.75V73.9891H445.75V55.7891H427.86V130.059C427.639 134.228 428.685 138.366 430.86 141.929C432.924 145.077 435.9 147.519 439.39 148.929C443.234 150.471 447.363 151.17 451.5 150.979C453.671 150.96 455.834 150.729 457.96 150.289C459.335 149.996 460.693 149.632 462.03 149.199L459.06 135.209Z" fill="#0C106C"/>
<path d="M492.86 105.44V149.94H474.96V73.9903H492.07V86.8603H492.96C494.636 82.6966 497.564 79.1567 501.34 76.7303C505.18 74.217 509.937 72.9636 515.61 72.9703C520.4 72.8582 525.134 74.0176 529.33 76.3303C533.265 78.5994 536.433 81.9907 538.43 86.0703C540.711 90.9025 541.805 96.2099 541.62 101.55V149.91H523.72V104.35C523.72 99.2703 522.41 95.297 519.79 92.4303C517.17 89.5636 513.527 88.1303 508.86 88.1303C505.956 88.0576 503.084 88.7472 500.53 90.1303C498.101 91.5078 496.124 93.5609 494.84 96.0403C493.413 98.9617 492.733 102.191 492.86 105.44V105.44Z" fill="#0C106C"/>
<path d="M624.24 111.37C624.374 105.506 623.435 99.6671 621.47 94.1404C619.834 89.653 617.237 85.5777 613.86 82.2004C610.72 79.0887 606.938 76.6998 602.78 75.2004C598.521 73.6849 594.03 72.9235 589.51 72.9504C582.852 72.8002 576.286 74.5334 570.57 77.9504C565.165 81.3099 560.824 86.1332 558.05 91.8604C554.959 98.2794 553.427 105.338 553.58 112.46C553.58 120.407 555.063 127.307 558.03 133.16C560.844 138.821 565.274 143.519 570.76 146.66C576.28 149.84 582.85 151.43 590.47 151.43C595.833 151.525 601.166 150.609 606.19 148.73C610.504 147.12 614.376 144.513 617.49 141.12C620.434 137.84 622.499 133.866 623.49 129.57L606.77 127.69C606.041 129.739 604.838 131.586 603.26 133.08C601.681 134.55 599.81 135.671 597.77 136.37C595.493 137.138 593.102 137.513 590.7 137.48C587.145 137.567 583.63 136.704 580.52 134.98C577.593 133.3 575.233 130.787 573.74 127.76C572.101 124.363 571.272 120.632 571.32 116.86H624.23L624.24 111.37ZM571.37 104.8C571.518 101.9 572.307 99.0691 573.68 96.5104C575.189 93.6805 577.413 91.2948 580.13 89.5904C583.019 87.7927 586.368 86.8722 589.77 86.9404C592.926 86.8788 596.039 87.6847 598.77 89.2704C601.33 90.796 603.425 92.9915 604.83 95.6204C606.314 98.4509 607.077 101.604 607.05 104.8H571.37Z" fill="#0C106C"/>
<path d="M637.39 149.941V73.9908H654.75V86.6508H655.54C656.712 82.5564 659.227 78.9747 662.68 76.4808C666.07 74.0899 670.132 72.8364 674.28 72.9008C675.28 72.9008 676.38 72.9008 677.62 73.0208C678.656 73.0854 679.687 73.2089 680.71 73.3908V89.8608C679.537 89.515 678.335 89.2741 677.12 89.1408C675.555 88.9334 673.978 88.8265 672.4 88.8208C669.343 88.771 666.323 89.4933 663.62 90.9208C661.096 92.2664 658.986 94.2752 657.52 96.7308C656 99.3236 655.229 102.286 655.29 105.291V149.941H637.39Z" fill="#0C106C"/>
<path d="M747.4 76.5107C747.243 74.5025 746.641 72.5545 745.636 70.8088C744.63 69.0632 743.248 67.564 741.59 66.4208C738.176 64.0208 733.75 62.8174 728.31 62.8108C724.947 62.7292 721.602 63.3173 718.47 64.5407C715.988 65.507 713.817 67.132 712.19 69.2408C710.745 71.2057 709.967 73.5817 709.97 76.0208C709.917 77.95 710.424 79.8533 711.43 81.5008C712.452 83.0963 713.819 84.4426 715.43 85.4408C717.183 86.5492 719.059 87.4518 721.02 88.1308C723.044 88.856 725.107 89.467 727.2 89.9608L736.69 92.3308C740.471 93.2089 744.169 94.4168 747.74 95.9408C751.178 97.393 754.394 99.3256 757.29 101.681C760.088 103.963 762.372 106.812 763.99 110.041C765.707 113.615 766.554 117.546 766.46 121.511C766.553 127.074 764.948 132.533 761.86 137.161C758.585 141.859 754.027 145.514 748.73 147.691C743.01 150.224 736.096 151.487 727.99 151.481C720.981 151.641 714.01 150.396 707.49 147.821C702.038 145.642 697.332 141.933 693.94 137.141C690.693 132.474 688.94 126.771 688.68 120.031H706.68C706.829 123.233 707.972 126.309 709.95 128.831C711.929 131.22 714.517 133.031 717.44 134.071C720.78 135.27 724.311 135.856 727.86 135.801C731.445 135.872 735.012 135.261 738.37 134.001C741.13 132.984 743.575 131.26 745.46 129.001C747.175 126.844 748.103 124.166 748.09 121.411C748.14 119.016 747.312 116.686 745.76 114.861C743.993 112.956 741.824 111.47 739.41 110.511C736.323 109.218 733.14 108.168 729.89 107.371L718.37 104.371C710.016 102.231 703.43 98.9741 698.61 94.6008C693.79 90.2274 691.376 84.4174 691.37 77.1708C691.259 71.5587 692.967 66.0614 696.24 61.5008C699.644 56.8861 704.228 53.273 709.51 51.0407C715.51 48.4728 721.984 47.1985 728.51 47.3008C735.013 47.1654 741.467 48.4414 747.43 51.0407C752.539 53.2764 756.953 56.8442 760.21 61.3707C763.323 65.8141 764.998 71.1054 765.01 76.5308L747.4 76.5107Z" fill="#0C106C"/>
<path d="M812.06 135.209C811.56 135.339 810.85 135.489 809.91 135.649C808.902 135.808 807.881 135.879 806.86 135.859C805.476 135.877 804.101 135.643 802.8 135.169C801.544 134.676 800.503 133.755 799.86 132.569C799.024 130.858 798.641 128.961 798.75 127.059V87.8591H813.75V73.9891H798.75V55.7891H780.86V73.9891H770.03V87.8591H780.86V130.059C780.639 134.228 781.685 138.366 783.86 141.929C785.924 145.077 788.9 147.519 792.39 148.929C796.234 150.471 800.363 151.17 804.5 150.979C806.671 150.96 808.835 150.729 810.96 150.289C812.338 149.994 813.699 149.631 815.04 149.199L812.06 135.209Z" fill="#0C106C"/>
<path d="M847.6 151.479C843.131 151.551 838.698 150.665 834.6 148.879C830.884 147.254 827.722 144.582 825.5 141.189C823.173 137.423 822.011 133.053 822.16 128.629C822.02 124.94 822.84 121.277 824.54 117.999C826.082 115.237 828.311 112.919 831.01 111.269C833.891 109.528 837.02 108.237 840.29 107.439C843.807 106.552 847.383 105.917 850.99 105.539C855.443 105.079 859.053 104.659 861.82 104.279C863.939 104.098 866 103.492 867.88 102.499C868.507 102.095 869.013 101.53 869.348 100.864C869.682 100.197 869.831 99.453 869.78 98.7091V98.4191C869.78 94.6891 868.68 91.8091 866.47 89.7591C864.26 87.7091 861.08 86.6991 856.93 86.6991C852.543 86.6991 849.073 87.6524 846.52 89.5591C844.144 91.2376 842.34 93.6038 841.35 96.3391L824.64 93.9691C825.802 89.6151 828.045 85.6251 831.16 82.3691C834.278 79.2051 838.088 76.8087 842.29 75.3691C846.973 73.7422 851.903 72.9403 856.86 72.9991C860.54 73.0034 864.208 73.4329 867.79 74.2791C871.324 75.101 874.687 76.5324 877.73 78.5091C880.776 80.5263 883.266 83.2774 884.97 86.5091C886.927 90.4162 887.872 94.7519 887.72 99.1191V149.949H870.5V139.509H869.86C868.692 141.73 867.145 143.73 865.29 145.419C863.149 147.359 860.644 148.855 857.92 149.819C854.606 150.981 851.111 151.543 847.6 151.479ZM852.25 138.319C855.498 138.403 858.715 137.663 861.6 136.169C864.111 134.85 866.219 132.878 867.7 130.459C869.126 128.124 869.871 125.436 869.85 122.699V113.699C868.993 114.302 868.029 114.736 867.01 114.979C865.536 115.394 864.04 115.728 862.53 115.979C860.89 116.279 859.25 116.539 857.64 116.769L853.44 117.359C850.989 117.672 848.583 118.27 846.27 119.139C844.337 119.841 842.616 121.025 841.27 122.579C839.82 124.576 839.196 127.055 839.528 129.501C839.859 131.946 841.121 134.17 843.05 135.709C845.771 137.514 848.987 138.426 852.25 138.319Z" fill="#0C106C"/>
<path d="M933.96 151.43C926.374 151.43 919.87 149.763 914.45 146.43C909.039 143.121 904.696 138.323 901.94 132.61C899.042 126.198 897.549 119.239 897.561 112.202C897.573 105.165 899.09 98.2122 902.01 91.8099C904.801 86.0901 909.17 81.2878 914.6 77.9699C920.02 74.6365 926.44 72.9699 933.86 72.9699C939.508 72.8613 945.109 74.0197 950.25 76.3599C954.897 78.4631 958.872 81.8087 961.738 86.0278C964.603 90.2468 966.248 95.1754 966.49 100.27H949.38C948.771 96.7601 947.046 93.5406 944.46 91.0899C941.88 88.6432 938.427 87.4165 934.1 87.4099C930.657 87.3455 927.282 88.3749 924.46 90.3499C921.553 92.4901 919.316 95.4142 918.01 98.7799C916.382 102.972 915.601 107.444 915.71 111.94C915.602 116.485 916.373 121.008 917.98 125.26C919.265 128.662 921.488 131.63 924.39 133.82C926.834 135.478 929.661 136.484 932.603 136.743C935.545 137.002 938.504 136.505 941.2 135.3C943.293 134.299 945.104 132.794 946.47 130.92C947.96 128.838 948.955 126.444 949.38 123.92H966.49C966.163 129.005 964.53 133.92 961.75 138.19C958.967 142.37 955.104 145.719 950.57 147.88C945.383 150.333 939.697 151.548 933.96 151.43Z" fill="#0C106C"/>
<path d="M1025.15 149.489H1046.56L1015.38 106.329L1044.83 73.5391H1023.91L996.61 104.049H995.38V55.7891H977.48V149.489H995.38V123.959L1001.89 116.979L1025.15 149.489Z" fill="#0C106C"/>
</svg>
