<svg width="193" height="48" viewBox="0 0 193 48" fill="none" xmlns="http://www.w3.org/2000/svg">
<path d="M62.3122 27.3861H64.7514C65.8841 27.4144 67.0097 27.1964 68.0527 26.7469C68.6992 26.4335 69.2735 25.9853 69.7382 25.4315C70.2029 24.8778 70.5477 24.2308 70.7501 23.5328C70.9524 22.8347 71.0079 22.1012 70.9128 21.3799C70.8177 20.6586 70.5742 19.9658 70.1982 19.3464C69.675 18.54 68.9285 17.909 68.0527 17.5329C67.0081 17.0898 65.8831 16.8758 64.7514 16.905H58.3761V31.0976H62.3122V27.3861ZM66.3536 20.6136C66.5608 20.8088 66.7229 21.0481 66.8283 21.3144C66.9337 21.5807 66.9799 21.8674 66.9634 22.154C66.9791 22.4375 66.9325 22.7211 66.8271 22.9841C66.7216 23.2471 66.5599 23.483 66.3536 23.6746C65.9489 24.0407 65.3335 24.2237 64.5075 24.2237H62.3122V20.0673H64.5075C65.3335 20.0673 65.9489 20.2494 66.3536 20.6136Z" fill="#333333"/>
<path d="M76.7368 27.3283H78.8933L81.4268 31.1017H85.6567L82.6381 26.6327C83.4418 26.2616 84.128 25.6708 84.62 24.9262C85.1384 24.1009 85.4019 23.1369 85.3767 22.1581C85.4029 21.1642 85.1397 20.1846 84.62 19.3421C84.0954 18.5369 83.3493 17.9063 82.4746 17.5286C81.4289 17.0857 80.3031 16.8718 79.1705 16.9007H72.7952V31.0933H76.7479L76.7368 27.3283ZM80.7782 20.6178C80.9844 20.8136 81.1457 21.053 81.2506 21.3192C81.3555 21.5855 81.4015 21.8718 81.3852 22.1581C81.4007 22.4414 81.3543 22.7246 81.2494 22.9875C81.1444 23.2504 80.9835 23.4865 80.7782 23.6788C80.3698 24.0448 79.7544 24.2279 78.9321 24.2279H76.7368V20.0715H78.9321C79.7563 20.0715 80.3716 20.2536 80.7782 20.6178Z" fill="#333333"/>
<path d="M102.432 21.0615C102.043 20.1694 101.483 19.3654 100.783 18.6966C100.084 18.0278 99.2604 17.5077 98.3605 17.167C96.3577 16.4387 94.1682 16.4387 92.1653 17.167C91.2499 17.513 90.4114 18.0404 89.6984 18.7186C88.9894 19.3949 88.4272 20.2141 88.0478 21.1237C87.6683 22.0334 87.4799 23.0135 87.4947 24.0014C87.4824 25.0118 87.6799 26.0135 88.074 26.9413C88.4537 27.8251 89.0064 28.6213 89.6984 29.2814C90.4114 29.9595 91.2499 30.487 92.1653 30.833C94.1682 31.5613 96.3577 31.5613 98.3605 30.833C99.2673 30.4881 100.098 29.9647 100.805 29.2926C101.516 28.6152 102.08 27.795 102.462 26.884C102.844 25.9731 103.035 24.9914 103.023 24.0014C103.034 22.9899 102.833 21.9875 102.432 21.0615ZM98.7402 25.66C98.5613 26.1388 98.2899 26.5763 97.9419 26.9469C97.6091 27.3029 97.2057 27.5832 96.7583 27.7692C95.8021 28.1485 94.7404 28.1485 93.7841 27.7692C93.3325 27.5836 92.9245 27.3034 92.5867 26.9469C92.2327 26.5774 91.9547 26.1399 91.769 25.66C91.3846 24.5829 91.3846 23.4029 91.769 22.3259C91.9545 21.8559 92.2274 21.4266 92.5728 21.0615C92.9093 20.6978 93.3172 20.4099 93.7703 20.2167C94.7313 19.8375 95.7973 19.8375 96.7583 20.2167C97.2071 20.4103 97.6105 20.6982 97.9419 21.0615C98.288 21.4303 98.5592 21.8647 98.7402 22.3399C99.1246 23.417 99.1246 24.597 98.7402 25.6741V25.66Z" fill="#333333"/>
<path d="M114.54 17.5329C113.494 17.09 112.368 16.876 111.236 16.9049H104.861V31.0976H108.813V27.3861H111.247C112.381 27.4143 113.507 27.1964 114.551 26.7468C115.423 26.3646 116.168 25.7349 116.697 24.9333C117.214 24.1035 117.478 23.1361 117.453 22.1539C117.479 21.1601 117.216 20.1804 116.697 19.3379C116.168 18.5342 115.418 17.9064 114.54 17.5329ZM112.844 23.6746C112.435 24.0407 111.82 24.2237 110.998 24.2237H108.802V20.0673H110.998C111.82 20.0673 112.435 20.2494 112.844 20.6136C113.05 20.8091 113.212 21.0485 113.318 21.3147C113.423 21.5809 113.469 21.8675 113.453 22.1539C113.468 22.4374 113.421 22.7207 113.316 22.9836C113.211 23.2465 113.049 23.4824 112.844 23.6746Z" fill="#333333"/>
<path d="M124.376 21.0501C124.721 20.6884 125.14 20.4078 125.604 20.2279C126.108 20.035 126.643 19.9395 127.181 19.9463C127.808 19.9369 128.427 20.0829 128.986 20.3715C129.555 20.6814 130.06 21.1014 130.471 21.6077L132.988 19.2958C132.312 18.433 131.438 17.7514 130.444 17.3105C129.35 16.8356 128.17 16.6005 126.981 16.6206C125.934 16.6098 124.894 16.792 123.91 17.1584C123.012 17.4894 122.19 18.0037 121.495 18.6696C120.8 19.3355 120.247 20.139 119.869 21.0304C119.1 22.933 119.1 25.0667 119.869 26.9694C120.244 27.8522 120.791 28.6491 121.476 29.3123C122.177 29.9849 123.005 30.506 123.91 30.8442C124.892 31.209 125.931 31.3903 126.976 31.3792C128.166 31.4008 129.346 31.1626 130.438 30.6808C131.427 30.2365 132.299 29.5611 132.983 28.7096L130.466 26.3977C130.055 26.9049 129.55 27.3249 128.98 27.6339C128.422 27.9234 127.802 28.0703 127.175 28.062C126.637 28.0687 126.102 27.9732 125.598 27.7804C125.134 27.6015 124.715 27.3207 124.37 26.9581C124.023 26.5868 123.752 26.1494 123.572 25.6712C123.184 24.5977 123.184 23.419 123.572 22.3455C123.753 21.8641 124.027 21.4239 124.376 21.0501Z" fill="#333333"/>
<path d="M144.167 22.2344H138.778V16.9037H134.825V31.0963H138.778V25.5601H144.167V31.0963H148.116V16.9037H144.167V22.2344Z" fill="#333333"/>
<path d="M153.868 25.3967H160.074V22.3977H153.868V20.0041H160.911V16.9037H149.954V31.0963H161.172V27.9931H153.868V25.3967Z" fill="#333333"/>
<path d="M168.081 21.0501C168.427 20.6884 168.846 20.4078 169.309 20.2279C169.813 20.0351 170.348 19.9396 170.886 19.9463C171.513 19.9366 172.132 20.0826 172.691 20.3715C173.262 20.6806 173.768 21.1006 174.179 21.6077L176.694 19.2958C176.017 18.433 175.144 17.7514 174.149 17.3105C173.053 16.8345 171.87 16.5994 170.679 16.6206C169.639 16.6119 168.606 16.7941 167.629 17.1584C166.731 17.4883 165.908 18.0021 165.213 18.6682C164.518 19.3342 163.965 20.1383 163.588 21.0304C162.816 22.9323 162.816 25.0675 163.588 26.9694C163.961 27.8526 164.507 28.6497 165.193 29.3123C165.894 29.9856 166.723 30.5068 167.629 30.8442C168.606 31.2075 169.639 31.3888 170.679 31.3792C171.868 31.4008 173.049 31.1626 174.141 30.6809C175.13 30.2365 176.002 29.5611 176.685 28.7097L174.171 26.3977C173.76 26.9056 173.254 27.3258 172.683 27.6339C172.124 27.9237 171.505 28.0707 170.878 28.062C170.34 28.0687 169.805 27.9732 169.301 27.7804C168.837 27.6015 168.418 27.3208 168.073 26.9581C167.726 26.5868 167.455 26.1494 167.275 25.6712C166.89 24.597 166.89 23.4197 167.275 22.3455C167.457 21.8639 167.731 21.4237 168.081 21.0501Z" fill="#333333"/>
<path d="M187.914 31.0963H192.504L186.5 23.1805L192.202 16.9037H187.853L182.445 22.7976V16.9037H178.531V31.0963H182.445V27.5397L183.911 25.943L187.914 31.0963Z" fill="#333333"/>
<path d="M37.7506 15.2804L30.3021 22.9195L22.8514 15.2804L15.403 22.9195L7.95234 30.5607L0.503845 22.9195L8.32951 14.8935H8.13355V4.08643L13.3991 4.08859L13.4012 9.69204L22.8514 0L37.7506 15.2804Z" fill="#76D275"/>
<path d="M43.5766 13.6187L51.0272 21.2599L24.9522 48L10.0531 32.7196L17.5037 25.0805L24.9522 32.7196L43.5766 13.6187Z" fill="#333333"/>
</svg>
