<?xml version="1.0" encoding="UTF-8"?>
<svg id="Layer_2" data-name="Layer 2" xmlns="http://www.w3.org/2000/svg" viewBox="0 0 197.07 108.03">
  <defs>
    <style>
      .cls-1 {
        fill: #292a2b;
      }

      .cls-2 {
        fill: #5e5aff;
      }
    </style>
  </defs>
  <g id="Layer_1-2" data-name="Layer 1">
    <g>
      <path class="cls-2" d="m95.49,44.35c-1.69-2.76-2.96-5.83-3.69-9.11-1.36-6.12-.5-12.39,1.98-17.95l-76.71,4.33C6.81,23.15-.73,32.57.06,42.92c.87,11.47,11.11,19.77,22.4,18.39l73.04-16.95h0Zm-65.62-4.46l-2.95,8.08c-.12.33-.41.58-.76.64l-8.47,1.48c-.35.06-.71-.07-.93-.34l-5.52-6.6c-.23-.27-.29-.65-.17-.98l2.95-8.08c.12-.33.41-.58.76-.64l8.47-1.48c.35-.06.71.07.93.34l5.52,6.6c.23.27.29.65.17.98Z"/>
      <path class="cls-2" d="m123.62.04c17.31-.86,25.56,11.85,26.95,17.69.21.86-.43,1.69-1.31,1.69l-13.34-.02c-.45,0-.86-.22-1.11-.59-.68-.99-2.13-3.4-5.08-3.98-3.51-.69-12.89-.8-12.77,13.84-.17,14.64,9.25,14.75,12.72,13.89,2.92-.73,4.44-3.51,5.13-4.49.25-.37.67-.59,1.11-.59l13.34.02c.88,0,1.52.83,1.31,1.69-1.41,5.83-9.74,19.04-27.04,18.13-28.63-1.51-28.59-26.52-28.59-28.68S95.18,1.46,123.62.04Z"/>
      <path class="cls-2" d="m168.95,38.84c0,.27,0,.55,0,.82-.02,1.74.51,3.21,1.58,4.39,1.07,1.18,2.71,1.79,4.93,1.81,2.14.02,3.84-.27,5.07-.9,1.24-.62,1.87-1.65,1.89-3.1.01-1.07-.56-2.07-1.7-3.01-1.15-.93-2.7-1.82-4.64-2.67-1.95-.84-4.11-1.65-6.49-2.43-2.58-.85-5.03-1.99-7.34-3.41s-4.19-3.26-5.64-5.5c-1.45-2.25-2.15-5.03-2.11-8.34.04-3.41,1.02-6.32,2.94-8.73,1.92-2.41,4.49-4.24,7.71-5.5s6.78-1.87,10.69-1.82c4.06.05,7.69.72,10.87,2.03s5.7,3.2,7.54,5.69c1.84,2.49,2.74,5.55,2.7,9.19,0,.32,0,.64-.01.93v.96c-.02.72-.61,1.29-1.32,1.28l-12.47-.14c-.72,0-1.29-.59-1.28-1.31v-.6c0-.26.01-.45.01-.58.02-1.62-.42-2.99-1.32-4.13-.9-1.13-2.45-1.71-4.67-1.73-2.19-.02-3.89.35-5.08,1.14-1.19.79-1.8,1.94-1.81,3.46-.01,1.07.47,2.02,1.46,2.84.99.82,2.36,1.59,4.1,2.31,1.75.72,3.73,1.49,5.94,2.31,3.33,1.21,6.24,2.53,8.74,3.97,2.5,1.44,4.44,3.22,5.83,5.36,1.38,2.13,2.06,4.86,2.02,8.17-.04,3.46-1.01,6.39-2.9,8.77-1.9,2.38-4.49,4.18-7.78,5.39-3.29,1.21-7.03,1.79-11.22,1.74-4.09-.05-7.74-.74-10.97-2.09-3.22-1.35-5.76-3.32-7.61-5.94-1.85-2.61-2.76-5.84-2.71-9.67,0-.32,0-.65.01-.97v-.14c0-.72.6-1.29,1.31-1.28l12.15.15c.47.02,1.62.05,1.6,1.3Z"/>
      <g>
        <path class="cls-1" d="m26,108.03c-1.25,0-2.56-.09-3.94-.28-1.38-.19-2.68-.58-3.89-1.18-1.21-.6-2.19-1.49-2.95-2.69s-1.14-2.81-1.14-4.83v-12.35h-6.42v-8.12h.14c1.41,0,2.53-.06,3.37-.19.84-.13,1.47-.43,1.88-.92.42-.49.69-1.25.83-2.3.14-1.05.2-2.49.2-4.33v-1.68h10.94v9.42h7.93v8.12h-7.93v9.53c0,1.05.13,1.93.38,2.65.25.72.93,1.08,2.03,1.08.65,0,1.26-.06,1.84-.19.58-.13,1.01-.25,1.3-.38v7.88c-.42.18-1.02.35-1.8.51-.79.16-1.71.24-2.78.24Z"/>
        <path class="cls-1" d="m51.86,108c-3.25,0-6.11-.63-8.57-1.9-2.46-1.26-4.39-3.02-5.77-5.28-1.38-2.26-2.07-4.87-2.07-7.85s.69-5.6,2.07-7.85c1.38-2.26,3.3-4.01,5.77-5.27,2.46-1.25,5.32-1.88,8.57-1.88s6.11.63,8.57,1.88,4.39,3.01,5.77,5.27c1.38,2.26,2.07,4.87,2.07,7.85s-.69,5.6-2.07,7.85c-1.38,2.26-3.3,4.02-5.77,5.28-2.46,1.26-5.32,1.9-8.57,1.9Zm0-8.26c1.12,0,2.08-.28,2.87-.84.79-.56,1.4-1.34,1.83-2.36.42-1.01.64-2.2.64-3.57s-.21-2.56-.64-3.56-1.03-1.78-1.83-2.33c-.8-.55-1.75-.83-2.87-.83s-2.05.28-2.86.83c-.8.55-1.42,1.33-1.84,2.33s-.64,2.19-.64,3.56.21,2.56.64,3.57c.42,1.01,1.04,1.8,1.84,2.36.8.56,1.75.84,2.86.84Z"/>
        <path class="cls-1" d="m87.11,108c-3.25,0-6.11-.63-8.57-1.9-2.46-1.26-4.39-3.02-5.77-5.28-1.38-2.26-2.07-4.87-2.07-7.85s.69-5.6,2.07-7.85c1.38-2.26,3.3-4.01,5.77-5.27,2.46-1.25,5.32-1.88,8.57-1.88s6.11.63,8.57,1.88c2.46,1.25,4.39,3.01,5.77,5.27,1.38,2.26,2.07,4.87,2.07,7.85s-.69,5.6-2.07,7.85c-1.38,2.26-3.3,4.02-5.77,5.28-2.46,1.26-5.32,1.9-8.57,1.9Zm0-8.26c1.12,0,2.08-.28,2.87-.84.79-.56,1.4-1.34,1.83-2.36.42-1.01.64-2.2.64-3.57s-.21-2.56-.64-3.56-1.03-1.78-1.83-2.33c-.8-.55-1.75-.83-2.87-.83s-2.05.28-2.86.83c-.8.55-1.42,1.33-1.84,2.33s-.64,2.19-.64,3.56.21,2.56.64,3.57c.42,1.01,1.04,1.8,1.84,2.36.8.56,1.75.84,2.86.84Z"/>
        <path class="cls-1" d="m118.61,68.72v38.6h-10.75v-38.6h10.75Z"/>
        <path class="cls-1" d="m124.16,107.33v-38.46h10.34v19.23l-1.87-1.03,9.1-8.5h13.19l-14.54,13.13,2.17-3.76,11.89,19.39h-11.4l-7.66-13.73,2.92-.08-4.79,4.47,1-4.58v13.92h-10.34Z"/>
        <path class="cls-1" d="m161.88,75.18c-1.61,0-3.01-.42-4.21-1.25-1.2-.83-1.8-2.01-1.8-3.55s.6-2.74,1.8-3.56c1.2-.82,2.6-1.23,4.21-1.23s3.01.41,4.21,1.23c1.2.82,1.8,2.01,1.8,3.56s-.6,2.74-1.8,3.56-2.6,1.23-4.21,1.23Zm-5.39,32.14v-28.76h10.8v28.76h-10.8Z"/>
        <path class="cls-1" d="m187.93,108.03c-1.25,0-2.56-.09-3.94-.28-1.38-.19-2.68-.58-3.89-1.18-1.21-.6-2.19-1.49-2.95-2.69s-1.14-2.81-1.14-4.83v-12.35h-6.42v-8.12h.14c1.41,0,2.53-.06,3.37-.19.84-.13,1.47-.43,1.88-.92.42-.49.69-1.25.83-2.3.14-1.05.2-2.49.2-4.33v-1.68h10.94v9.42h7.93v8.12h-7.93v9.53c0,1.05.13,1.93.38,2.65.25.72.93,1.08,2.03,1.08.65,0,1.26-.06,1.84-.19.58-.13,1.01-.25,1.3-.38v7.88c-.42.18-1.02.35-1.8.51-.79.16-1.71.24-2.78.24Z"/>
      </g>
    </g>
  </g>
</svg>