<?xml version="1.0" encoding="UTF-8"?>
<svg id="Layer_2" data-name="Layer 2" xmlns="http://www.w3.org/2000/svg" viewBox="0 0 171.63 171.63">
  <defs>
    <style>
      .cls-1 {
        fill: #292a2b;
      }

      .cls-2 {
        fill: #5e5aff;
      }
    </style>
  </defs>
  <g id="Layer_1-2" data-name="Layer 1">
    <g>
      <rect class="cls-2" width="171.63" height="171.63"/>
      <g>
        <path class="cls-1" d="m83.91,79.76c-1.06-1.73-1.86-3.65-2.31-5.7-.85-3.83-.32-7.76,1.24-11.24l-48.04,2.71c-6.43.96-11.15,6.85-10.66,13.33.54,7.18,6.96,12.38,14.03,11.52l45.74-10.62h0Zm-41.1-2.79l-1.85,5.06c-.08.21-.26.36-.48.4l-5.3.93c-.22.04-.44-.04-.58-.21l-3.45-4.13c-.14-.17-.18-.4-.11-.61l1.85-5.06c.08-.21.26-.36.48-.4l5.3-.93c.22-.04.44.04.58.21l3.45,4.13c.14.17.18.4.11.61Z"/>
        <path class="cls-1" d="m101.52,52.02c10.84-.54,16,7.42,16.88,11.08.13.54-.27,1.06-.82,1.06h-8.36c-.28-.01-.54-.15-.7-.38-.43-.62-1.34-2.13-3.18-2.49-2.2-.43-8.07-.5-8,8.67-.1,9.17,5.79,9.24,7.97,8.7,1.83-.45,2.78-2.2,3.21-2.81.16-.23.42-.37.7-.37h8.36c.55.01.95.53.82,1.07-.88,3.65-6.1,11.92-16.93,11.35-17.93-.94-17.9-16.61-17.9-17.96s.15-17.02,17.96-17.9Z"/>
        <path class="cls-1" d="m129.91,76.31c0,.17,0,.34,0,.51-.01,1.09.32,2.01.99,2.75.67.74,1.7,1.12,3.09,1.13,1.34.02,2.4-.17,3.18-.56.78-.39,1.17-1.04,1.18-1.94,0-.67-.35-1.3-1.07-1.88-.72-.59-1.69-1.14-2.91-1.67-1.22-.53-2.57-1.04-4.07-1.52-1.62-.53-3.15-1.24-4.6-2.13s-2.63-2.04-3.53-3.45c-.91-1.41-1.35-3.15-1.32-5.22.02-2.14.64-3.96,1.84-5.47,1.2-1.51,2.81-2.66,4.83-3.44s4.25-1.17,6.7-1.14c2.54.03,4.81.45,6.81,1.27,2,.82,3.57,2.01,4.72,3.56,1.15,1.56,1.72,3.48,1.69,5.75,0,.2,0,.4,0,.59v.6c-.01.45-.38.81-.83.8l-7.81-.09c-.45,0-.81-.37-.8-.82v-.38c0-.16,0-.28,0-.36.01-1.01-.26-1.88-.83-2.58-.56-.71-1.54-1.07-2.93-1.09-1.37-.02-2.43.22-3.18.71-.75.49-1.13,1.21-1.14,2.16,0,.67.3,1.26.92,1.78.62.51,1.48,1,2.57,1.45,1.09.45,2.33.93,3.72,1.45,2.08.76,3.91,1.59,5.47,2.48,1.57.9,2.78,2.02,3.65,3.35.87,1.34,1.29,3.04,1.26,5.12-.02,2.17-.63,4-1.82,5.49-1.19,1.49-2.81,2.62-4.87,3.37-2.06.76-4.4,1.12-7.02,1.09-2.56-.03-4.85-.46-6.87-1.31-2.02-.84-3.61-2.08-4.77-3.72-1.16-1.64-1.73-3.66-1.7-6.06,0-.2,0-.41,0-.61v-.09c0-.45.37-.81.82-.8l7.61.09c.3.01,1.02.03,1,.81Z"/>
        <g>
          <path class="cls-1" d="m40.39,119.64c-.78,0-1.6-.06-2.47-.18-.86-.12-1.68-.36-2.43-.74-.76-.37-1.37-.94-1.85-1.69s-.71-1.76-.71-3.03v-7.73h-4.02v-5.09h.08c.88,0,1.59-.04,2.11-.12.53-.08.92-.27,1.18-.58.26-.31.43-.79.52-1.44.08-.66.13-1.56.13-2.71v-1.05h6.85v5.9h4.97v5.09h-4.97v5.97c0,.66.08,1.21.24,1.66.16.45.58.68,1.27.68.41,0,.79-.04,1.15-.12.36-.08.63-.16.81-.24v4.93c-.26.11-.64.22-1.13.32-.49.1-1.07.15-1.74.15Z"/>
          <path class="cls-1" d="m56.58,119.62c-2.03,0-3.82-.4-5.37-1.19-1.54-.79-2.75-1.89-3.61-3.31-.87-1.41-1.3-3.05-1.3-4.92s.43-3.5,1.3-4.92c.86-1.41,2.07-2.51,3.61-3.3s3.33-1.18,5.37-1.18,3.82.39,5.37,1.18,2.75,1.89,3.61,3.3c.87,1.41,1.3,3.05,1.3,4.92s-.43,3.5-1.3,4.92c-.86,1.41-2.07,2.52-3.61,3.31-1.54.79-3.33,1.19-5.37,1.19Zm0-5.17c.7,0,1.3-.18,1.8-.53.5-.35.88-.84,1.14-1.48.27-.63.4-1.38.4-2.24s-.13-1.6-.4-2.23-.65-1.11-1.14-1.46c-.5-.34-1.1-.52-1.8-.52s-1.29.17-1.79.52c-.5.35-.89.83-1.15,1.46s-.4,1.37-.4,2.23.13,1.61.4,2.24c.27.63.65,1.13,1.15,1.48.5.35,1.1.53,1.79.53Z"/>
          <path class="cls-1" d="m78.66,119.62c-2.03,0-3.82-.4-5.37-1.19-1.54-.79-2.75-1.89-3.61-3.31-.87-1.41-1.3-3.05-1.3-4.92s.43-3.5,1.3-4.92c.86-1.41,2.07-2.51,3.61-3.3s3.33-1.18,5.37-1.18,3.82.39,5.37,1.18,2.75,1.89,3.61,3.3c.87,1.41,1.3,3.05,1.3,4.92s-.43,3.5-1.3,4.92c-.86,1.41-2.07,2.52-3.61,3.31-1.54.79-3.33,1.19-5.37,1.19Zm0-5.17c.7,0,1.3-.18,1.8-.53.5-.35.88-.84,1.14-1.48.27-.63.4-1.38.4-2.24s-.13-1.6-.4-2.23-.65-1.11-1.14-1.46c-.5-.34-1.1-.52-1.8-.52s-1.29.17-1.79.52c-.5.35-.89.83-1.15,1.46s-.4,1.37-.4,2.23.13,1.61.4,2.24c.27.63.65,1.13,1.15,1.48.5.35,1.1.53,1.79.53Z"/>
          <path class="cls-1" d="m98.38,95.02v24.17h-6.73v-24.17h6.73Z"/>
          <path class="cls-1" d="m101.86,119.2v-24.08h6.48v12.04l-1.17-.64,5.7-5.32h8.26l-9.11,8.22,1.36-2.36,7.44,12.14h-7.14l-4.8-8.6,1.83-.05-3,2.8.63-2.87v8.72h-6.48Z"/>
          <path class="cls-1" d="m125.48,99.07c-1.01,0-1.89-.26-2.64-.78-.75-.52-1.13-1.26-1.13-2.22s.38-1.72,1.13-2.23c.75-.51,1.63-.77,2.64-.77s1.88.26,2.64.77c.75.51,1.13,1.26,1.13,2.23s-.38,1.72-1.13,2.23-1.63.77-2.64.77Zm-3.37,20.13v-18.01h6.77v18.01h-6.77Z"/>
          <path class="cls-1" d="m141.79,119.64c-.78,0-1.6-.06-2.47-.18-.86-.12-1.68-.36-2.43-.74-.76-.37-1.37-.94-1.85-1.69s-.71-1.76-.71-3.03v-7.73h-4.02v-5.09h.08c.88,0,1.59-.04,2.11-.12.53-.08.92-.27,1.18-.58.26-.31.43-.79.52-1.44.08-.66.13-1.56.13-2.71v-1.05h6.85v5.9h4.97v5.09h-4.97v5.97c0,.66.08,1.21.24,1.66.16.45.58.68,1.27.68.41,0,.79-.04,1.15-.12.36-.08.63-.16.81-.24v4.93c-.26.11-.64.22-1.13.32-.49.1-1.07.15-1.74.15Z"/>
        </g>
      </g>
    </g>
  </g>
</svg>