<?xml version="1.0" encoding="UTF-8"?>
<svg id="Layer_2" data-name="Layer 2" xmlns="http://www.w3.org/2000/svg" viewBox="0 0 171.63 171.63">
  <defs>
    <style>
      .cls-1 {
        fill: #6cf6b0;
      }

      .cls-2 {
        fill: #292a2b;
      }
    </style>
  </defs>
  <g id="Layer_1-2" data-name="Layer 1">
    <g>
      <rect class="cls-1" width="171.63" height="171.63"/>
      <g>
        <path class="cls-2" d="m80.4,50.47c11.63-12.85,26.45-9.69,31.56-6.55.75.46.89,1.5.26,2.12l-9.45,9.42c-.32.32-.76.45-1.2.37-1.18-.22-3.91-.9-6.41.78-2.97,2-9.68,8.55.76,18.82,10.24,10.47,16.97,3.89,18.82.82,1.55-2.58.66-5.62.45-6.8-.08-.44.06-.89.37-1.2l9.45-9.42c.63-.62,1.66-.48,2.12.27,3.12,5.12,6.58,20.35-6.3,31.94-21.31,19.18-38.97,1.46-40.5-.07s-19.05-19.38.06-40.5Z"/>
        <path class="cls-2" d="m139.89,45.86c.19.2.38.39.57.59,1.22,1.25,2.63,1.91,4.22,1.99,1.59.08,3.18-.66,4.77-2.21,1.53-1.5,2.52-2.91,2.96-4.22.44-1.32.15-2.49-.86-3.53-.75-.77-1.86-1.07-3.33-.92-1.47.15-3.2.62-5.17,1.4-1.97.78-4.08,1.74-6.31,2.88-2.43,1.22-4.96,2.15-7.6,2.78s-5.27.66-7.88.1c-2.61-.57-5.07-2.03-7.39-4.4-2.39-2.44-3.75-5.19-4.1-8.25-.34-3.06.18-6.17,1.56-9.34s3.47-6.11,6.27-8.85c2.9-2.84,5.95-4.92,9.12-6.25s6.3-1.77,9.36-1.31c3.06.46,5.86,1.99,8.41,4.59.23.23.44.45.65.67l.67.68c.5.51.49,1.33-.02,1.83l-8.92,8.72c-.51.5-1.33.49-1.83-.02l-.42-.43c-.18-.19-.32-.32-.41-.41-1.13-1.16-2.42-1.82-3.85-1.99-1.43-.17-2.94.53-4.53,2.08-1.57,1.53-2.5,3-2.79,4.4-.29,1.4.1,2.64,1.16,3.73.75.77,1.76,1.09,3.04.97,1.28-.12,2.79-.54,4.53-1.27,1.74-.73,3.69-1.58,5.83-2.56,3.21-1.5,6.2-2.62,8.99-3.37,2.78-.75,5.42-.86,7.91-.33,2.49.53,4.89,1.98,7.21,4.35,2.42,2.48,3.8,5.23,4.15,8.25.35,3.03-.22,6.13-1.69,9.31-1.47,3.18-3.7,6.24-6.7,9.16-2.92,2.86-6,4.95-9.23,6.28-3.23,1.33-6.42,1.72-9.58,1.19-3.16-.54-6.08-2.18-8.76-4.92-.23-.23-.45-.46-.68-.69l-.1-.1c-.5-.51-.49-1.33.02-1.83l8.7-8.49c.35-.32,1.18-1.11,2.05-.22Z"/>
        <path class="cls-2" d="m78.59,93.22c-3.98-3.81-6.7-8.42-8.12-13.27l-58.73,49.41c-7.73,7.82-8.14,20.6-.9,28.87,8.03,9.18,21.99,9.71,30.69,1.36l49.73-59.09c-4.57-1.29-8.95-3.71-12.68-7.28Zm-41.99,53.25l-6.24,6.64c-.26.27-.64.39-1.01.3l-8.87-2.09c-.37-.09-.66-.36-.77-.72l-2.63-8.73c-.11-.36-.02-.75.24-1.02l6.24-6.64c.26-.27.64-.39,1.01-.3l8.87,2.09c.37.09.66.36.77.72l2.63,8.73c.11.36.02.75-.24,1.02Z"/>
      </g>
    </g>
  </g>
</svg>